<svg xmlns="http://www.w3.org/2000/svg" width="512" height="512" viewBox="0 0 512 512"><g fill="#F8F8F2" fill-rule="evenodd" stroke="#6272A4" stroke-width="3"><path d="M510.5 1.5v509H1.5V1.5zm-254 60c-53.848 0-102.598 21.826-137.886 57.114S61.5 202.652 61.5 256.5s21.826 102.598 57.114 137.886S202.652 451.5 256.5 451.5s102.598-21.826 137.886-57.114S451.5 310.348 451.5 256.5s-21.826-102.598-57.114-137.886S310.348 61.5 256.5 61.5Z"/><path d="M418 256q-22.266 23.649-41.461 43.003h-120.28c.018 30.253.073 56.562.241 74.497q.43 46.101 120.039-74.497L418 299Q257 470 256.5 416.5c-.215-23.005-.245-59.785-.25-100.998v-16.503c.004-8.548.002-17.415 0-26.497v-16.503ZM256 107c.175 29.75.228 64.768.243 100.015l.004 9.065.001 6.04.001 6.03v3.01l.001 17.94v6.899h-.004v3.081l.002 6.04.001 6.03v3.01l.001 17.94v6.899L85 299q16.794-23.05 31.94-43.004l139.306.003-.003-5.984c-.015-35.247-.068-70.265-.243-100.015q-.45-76.627-139.06 105.996L85 256Q255.5 22 256 107ZM85 256v43m333 0v-42.5"/></g></svg>