<svg xmlns="http://www.w3.org/2000/svg" xmlns:xlink="http://www.w3.org/1999/xlink" width="512" height="512" version="1.1" viewBox="0 0 512 512"><g id="Symbols" fill="none" fill-rule="evenodd" stroke="none" stroke-width="1"><g id="Combined-Shape" fill="#F8F8F2" stroke="#6272A4" stroke-width="3"><path d="M510.5,1.5 L510.5,510.5 L1.5,510.5 L1.5,1.5 L510.5,1.5 Z M256.5,61.5 C202.652237,61.5 153.902237,83.3261184 118.614178,118.614178 C83.3261184,153.902237 61.5,202.652237 61.5,256.5 C61.5,310.347763 83.3261184,359.097763 118.614178,394.385822 C153.902237,429.673882 202.652237,451.5 256.5,451.5 C310.347763,451.5 359.097763,429.673882 394.385822,394.385822 C429.673882,359.097763 451.5,310.347763 451.5,256.5 C451.5,202.652237 429.673882,153.902237 394.385822,118.614178 C359.097763,83.3261184 310.347763,61.5 256.5,61.5 Z"/><path d="M418,256 C403.156418,271.765544 389.336039,286.099878 376.538864,299.003002 L256.258945,299.002166 C256.277145,329.256265 256.332379,355.564555 256.5,373.5 C256.787235,404.234172 296.80019,379.401839 376.538864,299.003002 L418,299 C310.666667,413 256.833333,452.166667 256.5,416.5 C256.285,393.495 256.2549,356.71495 256.250686,315.501923 L256.25,298.999097 C256.2538,290.450674 256.251615,281.583935 256.250686,272.501923 L256.25,255.999097 Z M256,107 C256.175,136.75 256.2275,171.7675 256.24325,207.014688 L256.246544,216.08014 C256.24712,218.0944 256.2476,220.108 256.248,222.12 L256.248976,228.15026 C256.249104,229.15419 256.249216,230.157485 256.249314,231.160028 L256.249998,249.099143 C256.25,250.088425 256.25,251.07625 256.25,252.0625 L256.25,255.999097 L256.245586,255.999372 L256.246544,259.08014 C256.24712,261.0944 256.2476,263.108 256.248,265.12 L256.248976,271.15026 C256.249104,272.15419 256.249216,273.157485 256.249314,274.160028 L256.249998,292.099143 C256.25,293.088425 256.25,294.07625 256.25,295.0625 L256.25,298.999097 L85,299 C96.1964736,283.633579 106.843123,269.298887 116.939948,255.995924 L256.245586,255.999372 L256.245586,255.999372 L256.24325,250.014688 C256.2275,214.7675 256.175,179.75 256,150 C255.699501,98.915153 209.34615,134.247128 116.939948,255.995924 L85,256 C198.666667,100 255.666667,50.3333333 256,107 Z M85,256 L85,299 M418,299 L418,256.5"/></g></g></svg>
